<?xml version="1.0" standalone="no"?>
<!DOCTYPE svg PUBLIC "-//W3C//DTD SVG 20010904//EN"
 "http://www.w3.org/TR/2001/REC-SVG-20010904/DTD/svg10.dtd">
<svg version="1.0" xmlns="http://www.w3.org/2000/svg"
 width="500.000000pt" height="500.000000pt" viewBox="0 0 500.000000 500.000000"
 preserveAspectRatio="xMidYMid meet">

<g transform="translate(0.000000,500.000000) scale(0.100000,-0.100000)"
fill="#000000" stroke="none">
<path d="M1860 3586 c0 -2 7 -7 16 -10 8 -3 12 -2 9 4 -6 10 -25 14 -25 6z"/>
<path d="M1508 3423 c7 -3 16 -2 19 1 4 3 -2 6 -13 5 -11 0 -14 -3 -6 -6z"/>
<path d="M1668 3283 c6 -2 18 -2 25 0 6 3 1 5 -13 5 -14 0 -19 -2 -12 -5z"/>
<path d="M2110 3203 c-4 -76 -12 -139 -19 -147 -17 -21 2 -156 22 -156 4 0 6
310 1 310 -2 0 -4 -3 -4 -7z"/>
<path d="M2120 2881 c0 -19 61 -99 93 -124 44 -33 119 -58 138 -46 10 6 7 9
-11 9 -14 1 -40 9 -59 19 -26 14 -30 19 -17 24 9 4 16 2 16 -3 0 -6 5 -10 11
-10 8 0 8 5 -1 15 -7 8 -18 15 -24 14 -25 -3 -37 2 -30 13 4 7 3 8 -5 4 -7 -5
-31 11 -62 42 -27 27 -49 46 -49 43z"/>
<path d="M2318 2793 c7 -3 16 -2 19 1 4 3 -2 6 -13 5 -11 0 -14 -3 -6 -6z"/>
<path d="M2388 2763 c7 -3 16 -2 19 1 4 3 -2 6 -13 5 -11 0 -14 -3 -6 -6z"/>
<path d="M2508 2763 c7 -3 16 -2 19 1 4 3 -2 6 -13 5 -11 0 -14 -3 -6 -6z"/>
<path d="M2443 2743 c9 -2 23 -2 30 0 6 3 -1 5 -18 5 -16 0 -22 -2 -12 -5z"/>
<path d="M2710 2741 c0 -6 4 -13 10 -16 6 -3 7 1 4 9 -7 18 -14 21 -14 7z"/>
<path d="M2382 2700 c10 -6 25 -7 40 -1 20 9 18 10 -17 10 -31 0 -36 -2 -23
-9z"/>
<path d="M2727 2680 c7 -59 13 -80 22 -77 10 2 91 -93 91 -107 0 -5 3 -7 6 -4
5 5 -78 159 -109 203 -13 18 -14 17 -10 -15z"/>
<path d="M2505 2690 c3 -5 11 -10 16 -10 6 0 7 5 4 10 -3 6 -11 10 -16 10 -6
0 -7 -4 -4 -10z"/>
<path d="M2150 2502 c-6 -2 -10 -90 -10 -243 l0 -239 -32 -1 c-28 -2 -29 -2
-8 -6 14 -3 29 -9 35 -14 5 -5 31 -9 57 -9 l48 0 0 260 0 260 -40 -2 c-22 -2
-44 -4 -50 -6z"/>
<path d="M2907 2504 c-4 -4 -7 -121 -7 -261 l0 -253 55 0 55 0 0 98 c0 109 11
132 63 132 44 0 57 -32 57 -137 l0 -93 50 0 50 0 0 120 c0 116 -1 121 -27 150
-40 44 -103 57 -154 32 l-39 -19 0 113 0 114 -34 0 c-19 0 -41 2 -48 5 -8 3
-17 2 -21 -1z"/>
<path d="M2310 2245 l0 -255 54 0 55 0 3 143 c2 78 2 193 0 255 l-3 112 -54 0
-55 0 0 -255z"/>
<path d="M3316 2469 c-34 -27 -32 -64 7 -93 26 -19 30 -19 55 -5 37 20 43 80
10 103 -30 21 -40 20 -72 -5z"/>
<path d="M1389 2313 c-1 -251 -1 -276 0 -300 1 -21 6 -23 59 -23 l57 0 -3 100
-3 100 80 0 81 0 0 50 0 50 -80 0 -80 0 0 50 0 50 85 0 85 0 0 45 0 45 -140 0
-140 0 -1 -167z"/>
<path d="M2689 2413 l-24 -28 28 24 c25 23 32 31 24 31 -2 0 -14 -12 -28 -27z"/>
<path d="M1807 2296 c-20 -8 -43 -19 -51 -25 -49 -41 -62 -164 -23 -222 44
-66 142 -90 195 -48 23 18 27 19 30 5 3 -12 16 -16 57 -16 45 0 53 3 50 18 -2
9 -4 79 -4 155 l-1 137 -50 0 c-38 0 -50 -4 -50 -15 0 -14 -3 -14 -22 -1 -35
21 -89 26 -131 12z m128 -101 c34 -33 33 -77 -1 -104 -15 -12 -37 -21 -50 -21
-62 0 -88 90 -38 129 35 27 59 26 89 -4z"/>
<path d="M2565 2296 c-68 -31 -101 -93 -92 -173 12 -107 120 -171 209 -125 30
16 38 17 42 6 4 -9 22 -14 56 -14 l50 0 0 155 0 155 -55 0 c-40 0 -55 -4 -55
-14 0 -11 -8 -10 -37 5 -43 22 -76 23 -118 5z m119 -87 c49 -23 52 -101 5
-128 -56 -31 -120 20 -103 82 6 18 21 37 34 44 31 16 33 16 64 2z"/>
<path d="M3300 2145 l0 -155 50 0 50 0 0 155 0 155 -50 0 -50 0 0 -155z"/>
<path d="M1150 2176 c0 -2 8 -10 18 -17 15 -13 16 -12 3 4 -13 16 -21 21 -21
13z"/>
<path d="M3669 2102 c-45 -37 -16 -122 41 -122 9 0 29 9 44 21 35 28 35 70 0
98 -33 26 -55 26 -85 3z"/>
<path d="M1930 1775 l-35 -13 44 1 c23 1 38 3 32 5 -6 2 -9 8 -5 13 3 5 4 8 2
8 -2 -1 -19 -7 -38 -14z"/>
<path d="M2000 1780 c-12 -8 -12 -10 2 -15 10 -4 23 -5 30 -2 8 3 6 6 -5 6
-10 1 -15 6 -12 11 8 12 4 12 -15 0z"/>
<path d="M1775 1740 c-3 -5 -1 -10 4 -10 6 0 11 5 11 10 0 6 -2 10 -4 10 -3 0
-8 -4 -11 -10z"/>
<path d="M1546 1621 c-4 -5 -2 -12 3 -15 5 -4 12 -2 15 3 4 5 2 12 -3 15 -5 4
-12 2 -15 -3z"/>
<path d="M1514 1578 l-19 -23 23 19 c21 18 27 26 19 26 -2 0 -12 -10 -23 -22z"/>
<path d="M1823 1355 c0 -38 2 -55 4 -37 4 30 7 32 43 32 36 0 39 -2 43 -32 2
-18 4 -1 4 37 0 39 -2 55 -4 38 -4 -31 -7 -33 -43 -33 -36 0 -39 2 -43 33 -2
17 -4 1 -4 -38z"/>
<path d="M1990 1355 l0 -65 48 2 47 1 -42 4 c-38 4 -43 7 -43 28 0 20 6 24 38
28 l37 4 -37 1 c-33 2 -38 5 -38 26 0 21 5 25 38 29 l37 4 -42 1 -43 2 0 -65z"/>
<path d="M2147 1365 c-26 -53 -38 -100 -16 -62 7 11 22 17 46 17 22 0 41 -7
50 -17 17 -22 15 -14 -16 60 -14 31 -27 57 -31 57 -3 0 -18 -25 -33 -55z m53
-11 c0 -12 -37 -30 -46 -22 -2 3 1 20 7 38 11 31 13 32 26 15 7 -11 13 -24 13
-31z"/>
<path d="M2292 1358 l-2 -68 43 2 42 1 -37 4 -37 4 -4 62 -3 62 -2 -67z"/>
<path d="M2418 1413 c20 -4 22 -10 22 -64 0 -33 4 -59 10 -59 6 0 10 26 10 59
0 54 2 60 23 64 12 2 -3 4 -33 4 -30 0 -45 -2 -32 -4z"/>
<path d="M2553 1355 c0 -38 2 -55 4 -37 4 30 7 32 43 32 36 0 39 -2 43 -32 2
-18 4 -1 4 37 0 39 -2 55 -4 38 -4 -31 -7 -33 -43 -33 -36 0 -39 2 -43 33 -2
17 -4 1 -4 -38z"/>
<path d="M2788 1413 c20 -4 22 -10 22 -64 0 -33 4 -59 10 -59 6 0 10 26 10 59
0 54 2 60 23 64 12 2 -3 4 -33 4 -30 0 -45 -2 -32 -4z"/>
<path d="M2920 1355 l0 -65 48 2 47 1 -42 4 c-38 4 -43 7 -43 28 0 20 6 24 38
28 l37 4 -37 1 c-33 2 -38 5 -38 26 0 21 5 25 38 29 l37 4 -42 1 -43 2 0 -65z"/>
<path d="M3070 1400 c-53 -53 18 -142 80 -100 11 8 8 9 -12 4 -50 -11 -91 33
-69 75 14 26 45 35 71 21 11 -6 20 -7 20 -1 0 5 -7 12 -16 15 -29 11 -54 6
-74 -14z"/>
<path d="M3223 1355 c0 -38 2 -55 4 -37 4 30 7 32 43 32 36 0 39 -2 43 -32 2
-18 4 -1 4 37 0 39 -2 55 -4 38 -4 -31 -7 -33 -43 -33 -36 0 -39 2 -43 33 -2
17 -4 1 -4 -38z"/>
</g>
</svg>
